<?xml version="1.0" encoding="UTF-8" standalone="no"?><svg xmlns="http://www.w3.org/2000/svg" xmlns:xlink="http://www.w3.org/1999/xlink" contentStyleType="text/css" height="828px" preserveAspectRatio="none" style="width:664px;height:828px;background:#FFFFFF;" version="1.1" viewBox="0 0 664 828" width="664px" zoomAndPan="magnify"><defs/><g><!--MD5=[5bde30f362ff54d577f059879898dbb2]
class TipoUsuario--><g id="elem_TipoUsuario"><rect codeLine="2" fill="#F1F1F1" height="80.5938" id="TipoUsuario" rx="2.5" ry="2.5" style="stroke:#181818;stroke-width:0.5;" width="114" x="7" y="278.5"/><ellipse cx="22" cy="294.5" fill="#EB937F" rx="11" ry="11" style="stroke:#181818;stroke-width:1.0;"/><path d="M26.1094,300.5 L18.3906,300.5 L18.3906,288.1094 L26.1094,288.1094 L26.1094,290.2656 L20.8438,290.2656 L20.8438,292.9375 L25.6094,292.9375 L25.6094,295.0938 L20.8438,295.0938 L20.8438,298.3438 L26.1094,298.3438 L26.1094,300.5 Z " fill="#000000"/><text fill="#000000" font-family="sans-serif" font-size="14" lengthAdjust="spacing" textLength="82" x="36" y="299.3467">TipoUsuario</text><line style="stroke:#181818;stroke-width:0.5;" x1="8" x2="120" y1="310.5" y2="310.5"/><text fill="#000000" font-family="sans-serif" font-size="14" lengthAdjust="spacing" textLength="64" x="13" y="327.4951">CIDADAO</text><text fill="#000000" font-family="sans-serif" font-size="14" lengthAdjust="spacing" textLength="45" x="13" y="343.792">ADMIN</text><line style="stroke:#181818;stroke-width:0.5;" x1="8" x2="120" y1="351.0938" y2="351.0938"/></g><!--MD5=[376a2a7c20666e7e2024933f9a4b54f3]
class StatusSolicitacao--><g id="elem_StatusSolicitacao"><rect codeLine="7" fill="#F1F1F1" height="129.4844" id="StatusSolicitacao" rx="2.5" ry="2.5" style="stroke:#181818;stroke-width:0.5;" width="149" x="353.5" y="692"/><ellipse cx="368.5" cy="708" fill="#EB937F" rx="11" ry="11" style="stroke:#181818;stroke-width:1.0;"/><path d="M372.6094,714 L364.8906,714 L364.8906,701.6094 L372.6094,701.6094 L372.6094,703.7656 L367.3438,703.7656 L367.3438,706.4375 L372.1094,706.4375 L372.1094,708.5938 L367.3438,708.5938 L367.3438,711.8438 L372.6094,711.8438 L372.6094,714 Z " fill="#000000"/><text fill="#000000" font-family="sans-serif" font-size="14" lengthAdjust="spacing" textLength="117" x="382.5" y="712.8467">StatusSolicitacao</text><line style="stroke:#181818;stroke-width:0.5;" x1="354.5" x2="501.5" y1="724" y2="724"/><text fill="#000000" font-family="sans-serif" font-size="14" lengthAdjust="spacing" textLength="73" x="359.5" y="740.9951">RECEBIDO</text><text fill="#000000" font-family="sans-serif" font-size="14" lengthAdjust="spacing" textLength="84" x="359.5" y="757.292">EM_ANALISE</text><text fill="#000000" font-family="sans-serif" font-size="14" lengthAdjust="spacing" textLength="130" x="359.5" y="773.5889">EM_ATENDIMENTO</text><text fill="#000000" font-family="sans-serif" font-size="14" lengthAdjust="spacing" textLength="81" x="359.5" y="789.8857">FINALIZADO</text><text fill="#000000" font-family="sans-serif" font-size="14" lengthAdjust="spacing" textLength="83" x="359.5" y="806.1826">ARQUIVADO</text><line style="stroke:#181818;stroke-width:0.5;" x1="354.5" x2="501.5" y1="813.4844" y2="813.4844"/></g><!--MD5=[00cdd1e4954ed4314efc155f76780f3c]
class IdentityUser--><g id="elem_IdentityUser"><rect codeLine="16" fill="#F1F1F1" height="96.8906" id="IdentityUser" rx="2.5" ry="2.5" style="stroke:#181818;stroke-width:0.5;" width="162" x="156" y="270.5"/><ellipse cx="192.6" cy="286.5" fill="#ADD1B2" rx="11" ry="11" style="stroke:#181818;stroke-width:1.0;"/><path d="M195.5688,292.1406 Q194.9906,292.4375 194.35,292.5781 Q193.7094,292.7344 193.0063,292.7344 Q190.5063,292.7344 189.1781,291.0938 Q187.8656,289.4375 187.8656,286.3125 Q187.8656,283.1875 189.1781,281.5313 Q190.5063,279.875 193.0063,279.875 Q193.7094,279.875 194.35,280.0313 Q195.0063,280.1875 195.5688,280.4844 L195.5688,283.2031 Q194.9438,282.625 194.35,282.3594 Q193.7563,282.0781 193.1313,282.0781 Q191.7875,282.0781 191.1,283.1563 Q190.4125,284.2188 190.4125,286.3125 Q190.4125,288.4063 191.1,289.4844 Q191.7875,290.5469 193.1313,290.5469 Q193.7563,290.5469 194.35,290.2813 Q194.9438,290 195.5688,289.4219 L195.5688,292.1406 Z " fill="#000000"/><text fill="#000000" font-family="sans-serif" font-size="14" lengthAdjust="spacing" textLength="82" x="211.4" y="291.3467">IdentityUser</text><line style="stroke:#181818;stroke-width:0.5;" x1="157" x2="317" y1="302.5" y2="302.5"/><text fill="#000000" font-family="sans-serif" font-size="14" lengthAdjust="spacing" textLength="60" x="162" y="319.4951">Id: string</text><text fill="#000000" font-family="sans-serif" font-size="14" lengthAdjust="spacing" textLength="84" x="162" y="335.792">Email: string</text><text fill="#000000" font-family="sans-serif" font-size="14" lengthAdjust="spacing" textLength="150" x="162" y="352.0889">PasswordHash: string</text><line style="stroke:#181818;stroke-width:0.5;" x1="157" x2="317" y1="359.3906" y2="359.3906"/></g><!--MD5=[35a64b983c79880384a2fd9b61f0c24b]
class Usuario--><g id="elem_Usuario"><rect codeLine="22" fill="#F1F1F1" height="113.1875" id="Usuario" rx="2.5" ry="2.5" style="stroke:#181818;stroke-width:0.5;" width="185" x="141.5" y="23.5"/><ellipse cx="203.75" cy="39.5" fill="#ADD1B2" rx="11" ry="11" style="stroke:#181818;stroke-width:1.0;"/><path d="M206.7188,45.1406 Q206.1406,45.4375 205.5,45.5781 Q204.8594,45.7344 204.1563,45.7344 Q201.6563,45.7344 200.3281,44.0938 Q199.0156,42.4375 199.0156,39.3125 Q199.0156,36.1875 200.3281,34.5313 Q201.6563,32.875 204.1563,32.875 Q204.8594,32.875 205.5,33.0313 Q206.1563,33.1875 206.7188,33.4844 L206.7188,36.2031 Q206.0938,35.625 205.5,35.3594 Q204.9063,35.0781 204.2813,35.0781 Q202.9375,35.0781 202.25,36.1563 Q201.5625,37.2188 201.5625,39.3125 Q201.5625,41.4063 202.25,42.4844 Q202.9375,43.5469 204.2813,43.5469 Q204.9063,43.5469 205.5,43.2813 Q206.0938,43 206.7188,42.4219 L206.7188,45.1406 Z " fill="#000000"/><text fill="#000000" font-family="sans-serif" font-size="14" lengthAdjust="spacing" textLength="52" x="224.25" y="44.3467">Usuario</text><line style="stroke:#181818;stroke-width:0.5;" x1="142.5" x2="325.5" y1="55.5" y2="55.5"/><text fill="#000000" font-family="sans-serif" font-size="14" lengthAdjust="spacing" textLength="89" x="147.5" y="72.4951">Nome: string</text><text fill="#000000" font-family="sans-serif" font-size="14" lengthAdjust="spacing" textLength="75" x="147.5" y="88.792">CPF: string</text><text fill="#000000" font-family="sans-serif" font-size="14" lengthAdjust="spacing" textLength="115" x="147.5" y="105.0889">Endereco: string</text><text fill="#000000" font-family="sans-serif" font-size="14" lengthAdjust="spacing" textLength="173" x="147.5" y="121.3857">TipoUsuario: TipoUsuario</text><line style="stroke:#181818;stroke-width:0.5;" x1="142.5" x2="325.5" y1="128.6875" y2="128.6875"/></g><!--MD5=[faf4d635eea35b16677487bac6ad9bf5]
class Servico--><g id="elem_Servico"><rect codeLine="29" fill="#F1F1F1" height="145.7813" id="Servico" rx="2.5" ry="2.5" style="stroke:#181818;stroke-width:0.5;" width="185" x="361.5" y="7"/><ellipse cx="424.75" cy="23" fill="#ADD1B2" rx="11" ry="11" style="stroke:#181818;stroke-width:1.0;"/><path d="M427.7188,28.6406 Q427.1406,28.9375 426.5,29.0781 Q425.8594,29.2344 425.1563,29.2344 Q422.6563,29.2344 421.3281,27.5938 Q420.0156,25.9375 420.0156,22.8125 Q420.0156,19.6875 421.3281,18.0313 Q422.6563,16.375 425.1563,16.375 Q425.8594,16.375 426.5,16.5313 Q427.1563,16.6875 427.7188,16.9844 L427.7188,19.7031 Q427.0938,19.125 426.5,18.8594 Q425.9063,18.5781 425.2813,18.5781 Q423.9375,18.5781 423.25,19.6563 Q422.5625,20.7188 422.5625,22.8125 Q422.5625,24.9063 423.25,25.9844 Q423.9375,27.0469 425.2813,27.0469 Q425.9063,27.0469 426.5,26.7813 Q427.0938,26.5 427.7188,25.9219 L427.7188,28.6406 Z " fill="#000000"/><text fill="#000000" font-family="sans-serif" font-size="14" lengthAdjust="spacing" textLength="50" x="445.25" y="27.8467">Servico</text><line style="stroke:#181818;stroke-width:0.5;" x1="362.5" x2="545.5" y1="39" y2="39"/><text fill="#000000" font-family="sans-serif" font-size="14" lengthAdjust="spacing" textLength="38" x="367.5" y="55.9951">id: int</text><text fill="#000000" font-family="sans-serif" font-size="14" lengthAdjust="spacing" textLength="88" x="367.5" y="72.292">nome: string</text><text fill="#000000" font-family="sans-serif" font-size="14" lengthAdjust="spacing" textLength="115" x="367.5" y="88.5889">descricao: string</text><text fill="#000000" font-family="sans-serif" font-size="14" lengthAdjust="spacing" textLength="173" x="367.5" y="104.8857">setorResponsavel: string</text><text fill="#000000" font-family="sans-serif" font-size="14" lengthAdjust="spacing" textLength="129" x="367.5" y="121.1826">prazoEstimado: int</text><text fill="#000000" font-family="sans-serif" font-size="14" lengthAdjust="spacing" textLength="97" x="367.5" y="137.4795">ativo: boolean</text><line style="stroke:#181818;stroke-width:0.5;" x1="362.5" x2="545.5" y1="144.7813" y2="144.7813"/></g><!--MD5=[fb002a9a7e4a51a9296d31a01390238a]
class Solicitacao--><g id="elem_Solicitacao"><rect codeLine="38" fill="#F1F1F1" height="178.375" id="Solicitacao" rx="2.5" ry="2.5" style="stroke:#181818;stroke-width:0.5;" width="185" x="358.5" y="230"/><ellipse cx="410.25" cy="246" fill="#ADD1B2" rx="11" ry="11" style="stroke:#181818;stroke-width:1.0;"/><path d="M413.2188,251.6406 Q412.6406,251.9375 412,252.0781 Q411.3594,252.2344 410.6563,252.2344 Q408.1563,252.2344 406.8281,250.5938 Q405.5156,248.9375 405.5156,245.8125 Q405.5156,242.6875 406.8281,241.0313 Q408.1563,239.375 410.6563,239.375 Q411.3594,239.375 412,239.5313 Q412.6563,239.6875 413.2188,239.9844 L413.2188,242.7031 Q412.5938,242.125 412,241.8594 Q411.4063,241.5781 410.7813,241.5781 Q409.4375,241.5781 408.75,242.6563 Q408.0625,243.7188 408.0625,245.8125 Q408.0625,247.9063 408.75,248.9844 Q409.4375,250.0469 410.7813,250.0469 Q411.4063,250.0469 412,249.7813 Q412.5938,249.5 413.2188,248.9219 L413.2188,251.6406 Z " fill="#000000"/><text fill="#000000" font-family="sans-serif" font-size="14" lengthAdjust="spacing" textLength="73" x="430.75" y="250.8467">Solicitacao</text><line style="stroke:#181818;stroke-width:0.5;" x1="359.5" x2="542.5" y1="262" y2="262"/><text fill="#000000" font-family="sans-serif" font-size="14" lengthAdjust="spacing" textLength="38" x="364.5" y="278.9951">id: int</text><text fill="#000000" font-family="sans-serif" font-size="14" lengthAdjust="spacing" textLength="114" x="364.5" y="295.292">protocolo: string</text><text fill="#000000" font-family="sans-serif" font-size="14" lengthAdjust="spacing" textLength="89" x="364.5" y="311.5889">usuarioId: int</text><text fill="#000000" font-family="sans-serif" font-size="14" lengthAdjust="spacing" textLength="87" x="364.5" y="327.8857">servicoId: int</text><text fill="#000000" font-family="sans-serif" font-size="14" lengthAdjust="spacing" textLength="115" x="364.5" y="344.1826">descricao: string</text><text fill="#000000" font-family="sans-serif" font-size="14" lengthAdjust="spacing" textLength="115" x="364.5" y="360.4795">endereco: string</text><text fill="#000000" font-family="sans-serif" font-size="14" lengthAdjust="spacing" textLength="173" x="364.5" y="376.7764">dataSolicitacao: datetime</text><text fill="#000000" font-family="sans-serif" font-size="14" lengthAdjust="spacing" textLength="169" x="364.5" y="393.0732">status: StatusSolicitacao</text><line style="stroke:#181818;stroke-width:0.5;" x1="359.5" x2="542.5" y1="400.375" y2="400.375"/></g><!--MD5=[8928783787e4783559eeee598808822c]
class HistoricoStatus--><g id="elem_HistoricoStatus"><rect codeLine="49" fill="#F1F1F1" height="145.7813" id="HistoricoStatus" rx="2.5" ry="2.5" style="stroke:#181818;stroke-width:0.5;" width="181" x="476.5" y="469"/><ellipse cx="511.75" cy="485" fill="#ADD1B2" rx="11" ry="11" style="stroke:#181818;stroke-width:1.0;"/><path d="M514.7188,490.6406 Q514.1406,490.9375 513.5,491.0781 Q512.8594,491.2344 512.1563,491.2344 Q509.6563,491.2344 508.3281,489.5938 Q507.0156,487.9375 507.0156,484.8125 Q507.0156,481.6875 508.3281,480.0313 Q509.6563,478.375 512.1563,478.375 Q512.8594,478.375 513.5,478.5313 Q514.1563,478.6875 514.7188,478.9844 L514.7188,481.7031 Q514.0938,481.125 513.5,480.8594 Q512.9063,480.5781 512.2813,480.5781 Q510.9375,480.5781 510.25,481.6563 Q509.5625,482.7188 509.5625,484.8125 Q509.5625,486.9063 510.25,487.9844 Q510.9375,489.0469 512.2813,489.0469 Q512.9063,489.0469 513.5,488.7813 Q514.0938,488.5 514.7188,487.9219 L514.7188,490.6406 Z " fill="#000000"/><text fill="#000000" font-family="sans-serif" font-size="14" lengthAdjust="spacing" textLength="104" x="530.25" y="489.8467">HistoricoStatus</text><line style="stroke:#181818;stroke-width:0.5;" x1="477.5" x2="656.5" y1="501" y2="501"/><text fill="#000000" font-family="sans-serif" font-size="14" lengthAdjust="spacing" textLength="38" x="482.5" y="517.9951">id: int</text><text fill="#000000" font-family="sans-serif" font-size="14" lengthAdjust="spacing" textLength="110" x="482.5" y="534.292">solicitacaoId: int</text><text fill="#000000" font-family="sans-serif" font-size="14" lengthAdjust="spacing" textLength="132" x="482.5" y="550.5889">dataHora: datetime</text><text fill="#000000" font-family="sans-serif" font-size="14" lengthAdjust="spacing" textLength="169" x="482.5" y="566.8857">status: StatusSolicitacao</text><text fill="#000000" font-family="sans-serif" font-size="14" lengthAdjust="spacing" textLength="128" x="482.5" y="583.1826">observacao: string</text><text fill="#000000" font-family="sans-serif" font-size="14" lengthAdjust="spacing" textLength="105" x="482.5" y="599.4795">alteradoPor: int</text><line style="stroke:#181818;stroke-width:0.5;" x1="477.5" x2="656.5" y1="606.7813" y2="606.7813"/></g><!--MD5=[dba5b698add18114ca347230ad9d5ced]
link Usuario to Solicitacao--><g id="link_Usuario_Solicitacao"><path codeLine="59" d="M284.88,136.57 C310.31,164.34 341.69,198.61 370.3,229.86 " fill="none" id="Usuario-Solicitacao" style="stroke:#181818;stroke-width:1.0;"/><text fill="#000000" font-family="sans-serif" font-size="13" lengthAdjust="spacing" textLength="8" x="282.8865" y="156.8424">1</text><text fill="#000000" font-family="sans-serif" font-size="13" lengthAdjust="spacing" textLength="7" x="356.3272" y="218.9139">*</text></g><!--MD5=[dc01e95cb66e704824388c23e4497d9c]
link Servico to Solicitacao--><g id="link_Servico_Solicitacao"><path codeLine="60" d="M453.09,153.07 C452.78,177.31 452.44,204.63 452.11,229.96 " fill="none" id="Servico-Solicitacao" style="stroke:#181818;stroke-width:1.0;"/><text fill="#000000" font-family="sans-serif" font-size="13" lengthAdjust="spacing" textLength="8" x="444.622" y="172.833">1</text><text fill="#000000" font-family="sans-serif" font-size="13" lengthAdjust="spacing" textLength="7" x="444.9121" y="219.0221">*</text></g><!--MD5=[1e94196b4e4520bc6af1c5d51ace2837]
link Solicitacao to HistoricoStatus--><g id="link_Solicitacao_HistoricoStatus"><path codeLine="61" d="M497.35,408.3 C507.89,428.38 518.96,449.47 529.1,468.79 " fill="none" id="Solicitacao-HistoricoStatus" style="stroke:#181818;stroke-width:1.0;"/><text fill="#000000" font-family="sans-serif" font-size="13" lengthAdjust="spacing" textLength="8" x="492.8571" y="428.3731">1</text><text fill="#000000" font-family="sans-serif" font-size="13" lengthAdjust="spacing" textLength="7" x="518.0247" y="457.9293">*</text></g><!--MD5=[d644a6141b39a867e115d7d710affa71]
link Usuario to TipoUsuario--><g id="link_Usuario_TipoUsuario"><path codeLine="64" d="M188.32,136.7 C176.55,151.54 164.08,167.71 153,183 C131.42,212.78 108.63,247.43 91.51,274.17 " fill="none" id="Usuario-to-TipoUsuario" style="stroke:#181818;stroke-width:1.0;"/><polygon fill="#181818" points="88.81,278.39,97.0332,272.9697,91.5073,274.1799,90.2971,268.6541,88.81,278.39" style="stroke:#181818;stroke-width:1.0;"/><text fill="#000000" font-family="sans-serif" font-size="13" lengthAdjust="spacing" textLength="73" x="154" y="196.0669">tipoUsuario</text></g><!--MD5=[33df874082d2de9f3b16e9cccbebe842]
link Solicitacao to StatusSolicitacao--><g id="link_Solicitacao_StatusSolicitacao"><path codeLine="65" d="M427.47,408.08 C423.12,427.97 419.24,449.09 417,469 C408.66,543.06 413.84,628.5 419.57,686.67 " fill="none" id="Solicitacao-to-StatusSolicitacao" style="stroke:#181818;stroke-width:1.0;"/><polygon fill="#181818" points="420.09,691.86,423.172,682.5058,419.5911,686.885,415.2119,683.3041,420.09,691.86" style="stroke:#181818;stroke-width:1.0;"/><text fill="#000000" font-family="sans-serif" font-size="13" lengthAdjust="spacing" textLength="40" x="418" y="546.5669">status</text></g><!--MD5=[b8e34a816d300519192b4f96b4d5183a]
link HistoricoStatus to StatusSolicitacao--><g id="link_HistoricoStatus_StatusSolicitacao"><path codeLine="66" d="M519.75,615.24 C504.41,638.69 487.46,664.6 472.34,687.71 " fill="none" id="HistoricoStatus-to-StatusSolicitacao" style="stroke:#181818;stroke-width:1.0;"/><polygon fill="#181818" points="469.54,692,477.8185,686.6646,472.2805,687.8179,471.1272,682.2799,469.54,692" style="stroke:#181818;stroke-width:1.0;"/><text fill="#000000" font-family="sans-serif" font-size="13" lengthAdjust="spacing" textLength="40" x="498" y="658.0669">status</text></g><!--MD5=[5efca25dd3a51762fd5ab11a59a1ea6a]
link Usuario to IdentityUser--><g id="link_Usuario_IdentityUser"><path codeLine="67" d="M234.7,136.57 C235.13,170.53 235.69,214.22 236.14,250.21 " fill="none" id="Usuario-to-IdentityUser" style="stroke:#181818;stroke-width:1.0;"/><polygon fill="none" points="243.14,250.3,236.4,270.39,229.14,250.48,243.14,250.3" style="stroke:#181818;stroke-width:1.0;"/></g><!--MD5=[0039b6c10ce814afc11e11cb6736e2e4]
@startuml
' ====== ENUMS ======
enum TipoUsuario {
  CIDADAO
  ADMIN
}

enum StatusSolicitacao {
  RECEBIDO
  EM_ANALISE
  EM_ATENDIMENTO
  FINALIZADO
  ARQUIVADO
}

' ====== CLASSES ======
class IdentityUser {
  Id: string
  Email: string
  PasswordHash: string
}

class Usuario {
  Nome: string
  CPF: string
  Endereco: string
  TipoUsuario: TipoUsuario
}

class Servico {
  id: int
  nome: string
  descricao: string
  setorResponsavel: string
  prazoEstimado: int
  ativo: boolean
}

class Solicitacao {
  id: int
  protocolo: string
  usuarioId: int
  servicoId: int
  descricao: string
  endereco: string
  dataSolicitacao: datetime
  status: StatusSolicitacao
}

class HistoricoStatus {
  id: int
  solicitacaoId: int
  dataHora: datetime
  status: StatusSolicitacao
  observacao: string
  alteradoPor: int
}

' ====== RELAÇÕES ENTRE CLASSES ======
Usuario "1" - - "*" Solicitacao
Servico "1" - - "*" Solicitacao
Solicitacao "1" - - "*" HistoricoStatus

' ====== RELACIONAMENTO COM ENUMS ======
Usuario - -> TipoUsuario : tipoUsuario
Solicitacao - -> StatusSolicitacao : status
HistoricoStatus - -> StatusSolicitacao : status
Usuario - -|> IdentityUser
@enduml

@startuml
enum TipoUsuario {
  CIDADAO
  ADMIN
}

enum StatusSolicitacao {
  RECEBIDO
  EM_ANALISE
  EM_ATENDIMENTO
  FINALIZADO
  ARQUIVADO
}

class IdentityUser {
  Id: string
  Email: string
  PasswordHash: string
}

class Usuario {
  Nome: string
  CPF: string
  Endereco: string
  TipoUsuario: TipoUsuario
}

class Servico {
  id: int
  nome: string
  descricao: string
  setorResponsavel: string
  prazoEstimado: int
  ativo: boolean
}

class Solicitacao {
  id: int
  protocolo: string
  usuarioId: int
  servicoId: int
  descricao: string
  endereco: string
  dataSolicitacao: datetime
  status: StatusSolicitacao
}

class HistoricoStatus {
  id: int
  solicitacaoId: int
  dataHora: datetime
  status: StatusSolicitacao
  observacao: string
  alteradoPor: int
}

Usuario "1" - - "*" Solicitacao
Servico "1" - - "*" Solicitacao
Solicitacao "1" - - "*" HistoricoStatus

Usuario - -> TipoUsuario : tipoUsuario
Solicitacao - -> StatusSolicitacao : status
HistoricoStatus - -> StatusSolicitacao : status
Usuario - -|> IdentityUser
@enduml

PlantUML version 1.2022.7(Mon Aug 22 17:01:30 UTC 2022)
(GPL source distribution)
Java Runtime: OpenJDK Runtime Environment
JVM: OpenJDK 64-Bit Server VM
Default Encoding: UTF-8
Language: en
Country: null
--></g></svg>